<!-- Generator: Adobe Illustrator 19.1.0, SVG Export Plug-In  -->
<svg version="1.1"
	 xmlns="http://www.w3.org/2000/svg" xmlns:xlink="http://www.w3.org/1999/xlink" xmlns:a="http://ns.adobe.com/AdobeSVGViewerExtensions/3.0/"
	 x="0px" y="0px" width="50px" height="89.8px" viewBox="0 0 50 89.8" enable-background="new 0 0 50 89.8" xml:space="preserve">
<defs>
</defs>
<g id="Header_light_copia">
	<g>
		<rect width="50" height="89.8"/>
		<rect y="75.5" fill="#FDB515" width="50" height="14.4"/>
		<path fill="#FDB515" d="M12.6,36.2c0.1,0,0.2,0.5,0.3,0.5s0.9-0.2,1.5-0.3c0.6-0.1,2.3-0.3,3.1-0.5c0.8-0.2,2.1-0.3,2.7-0.2
			c0.6,0.1,0.8,0.5,1,0.8c0.2,0.3,0.1,1,0.1,1.3c0,0.3-0.5,0.8-0.8,1s-0.7,0.4-0.8,0.3c-0.1-0.1-0.4-0.5-0.7-0.6
			c-0.3-0.1-1.4,0.1-2.1,0.1s-2.1,0.4-2.6,0.4c-0.4,0.1-1.4,0.1-1.4,0.2c-0.1,0.1,0,0.4-0.1,0.6c-0.1,0.2,0.1,1-0.2,1.2
			s-0.1,0.8-0.2,1c-0.1,0.2,0.1,5.5,0.1,5.7s0.3,0.8,0.2,1.1c0,0.2-0.1,3.2-0.1,3.6c0,0.5,0,6.7,0.1,7.1c0.1,0.4,0.2,2.7,0.2,3
			s0.1,0.3,0.3,0.3s1.7,0.3,2.4,0.4s3.5,0.3,3.5,0.3l0.1,2.7c0,0-0.1,0.1-0.5,0c-0.4-0.1-4-0.4-4.7-0.5c-0.7-0.1-1.7-0.2-2.1,0.1
			c-0.4,0.3-1.1,0.4-1.7-0.2c-0.6-0.6-0.6-1.7-0.4-2.1s0.4-1.1,0.5-1.9c0.1-0.8-0.3-2-0.4-2.7s-0.1-3.9,0-5.2c0.1-1.3-0.1-3.5-0.2-4
			c-0.1-0.5,0.1-4.6,0.1-6.6s0.4-6.9,0.4-6.9C10.3,36.1,12.5,36.1,12.6,36.2z M13.2,49.2c0,0-0.2,1.9-0.2,2.1c0,0.2,0.3,0.5,0.4,0.5
			c0.1,0.1,0.7,0.1,1.1-0.1c0.5-0.2,0.6-0.3,1-0.3c0.4,0,1.5-0.1,1.7-0.2c0.2-0.1,0.6-0.1,0.7-0.3c0.1-0.2,0.2-0.3,0.5-0.4
			s0.7-0.2,0.8-0.5c0.1-0.3,0.3-0.5,0.1-0.8c-0.3-0.3-0.6-0.6-1.1-0.8c-0.5-0.2-0.7-0.3-1.2-0.2c-0.5,0.1-1.6,0.5-2,0.6
			c-0.4,0.1-1.2,0.2-1.5,0.2S13.2,49.2,13.2,49.2z M30.9,62.8c0,0-0.2,0.8-0.2,1.3c0,0.5,0,1.3,0.1,1.4c0.1,0.2,0.1,0.2,0.5,0.2
			c0.3,0,3.9-0.1,4.2,0.1c0.3,0.1,1,0.5,1.4,0.5c0.4,0.1,1.6,0.3,1.8,0.3s0.3,0,0.3-0.2c0-0.3,0.1-2.4,0.1-3.1
			c0-0.7-0.2-4.9-0.1-5.3c0.1-0.5,0.1-2,0.2-2.7c0.1-0.7,0.5-2.7,0.6-3.3s0.4-2.9,0.4-3.3c0-0.4,0.2-2.5,0.1-3.9
			c-0.1-1.4,0-4.4-0.1-5.3c0-0.9,0.1-3-0.1-3.3c-0.2-0.3-0.5-0.6-0.7-0.7c-0.3-0.1-0.6-0.3-0.8-0.3c-0.2-0.1-1.5-0.2-1.9-0.2
			c-0.5,0-1.4,0-1.7,0.1c-0.3,0.1-0.8,0.5-1.2,0.5c-0.4,0-3.3,0.1-3.8,0c-0.5-0.1-1-0.2-1.1,0.1c-0.1,0.2-0.4,1.9-0.3,2.2
			s0.2,0.4,0.5,0.5c0.3,0.1,1,0.2,1.4,0.2c0.4,0.1,1.3,0.1,2.4-0.1c1.1-0.1,2-0.4,2.4-0.5c0.4-0.1,1.1-0.2,1.5-0.1
			c0.3,0.2,0.8,0.1,0.8,0.5s0.2,5.8,0.2,6.3s0.1,3.1,0,3.4s-0.3,1.7-0.5,2.4s-0.6,2.3-0.7,3.1c-0.1,0.8-0.2,2.4-0.2,3.3
			c0,0.9,0,6,0,6.1c0,0.2,0,0.2-0.3,0.1c-0.3-0.1-3-0.1-3.7-0.1S31.2,62.7,30.9,62.8z M35.5,47.8c-0.3,0-1.4,0.2-1.8,0.3
			c-0.4,0.1-1.4,0.3-1.8,0.4c-0.4,0-0.6,0.3-0.6,0.4s0,1.6,0,2c0,0.5,0.2,0.5,0.4,0.5c0.2,0,1.2-0.1,1.5-0.1c0.3-0.1,0.6-0.3,1-0.4
			c0.4-0.1,1.2,0,1.9,0c0.7,0,0.6-0.1,0.6-0.2c0.1-0.1-0.1-2.8-0.1-2.8C36.5,47.7,35.8,47.8,35.5,47.8z M23.1,37.5
			c0,0.2-0.1,1.4-0.2,1.8c-0.1,0.5-0.3,2.5-0.3,2.9c0,0.5,0.2,1.5,0.3,2c0.1,0.5,0.4,0.5,0.8,0.6c0.4,0.1,0.7-0.1,1-0.3
			c0.3-0.2,0.7-0.6,0.9-0.8c0.2-0.2,0.1-0.4,0-0.6c-0.1-0.3-0.2-0.6-0.2-1s0.2-1.1,0.2-1.3c0.1-0.2,0.1-2,0.2-2.3
			c0.1-0.3-0.1-1.3-0.2-1.4c-0.1-0.1-2.3-0.1-2.3-0.1C23.2,37.1,23.1,37.3,23.1,37.5z M23.4,55.1c0.1,0.2-0.1,1.3,0,1.6
			c0.1,0.3-0.1,1.2-0.2,1.6s-0.2,0.9-0.3,1.2c-0.1,0.3-0.3,1.7-0.3,1.9c0,0.2-0.1,0.5,0,0.6c0.1,0.1,2.6,0.1,2.8,0.1
			s0.3-0.1,0.2-0.4c0-0.3,0.1-1.5,0.2-1.8S26,58,26,57.7s0.2-2.7,0.2-2.8s0.1-0.2-0.5-0.2c-0.6,0-2.1-0.1-2.1-0.1
			C23.4,54.6,23.3,54.9,23.4,55.1z M30.3,51.1c0,0.3-0.3,0.8-0.4,1.1s-0.3,0.5-0.5,1c-0.2,0.4-0.5,0.6-0.8,0.7
			C28.3,54,27.5,54,27,54s-2.5-0.1-2.7-0.1c-0.2-0.1-0.8-0.1-1.4-0.1c-0.6-0.1-1.4-0.5-1.8-0.7c-0.3-0.2-0.6-0.7-0.8-1
			c-0.2-0.3-0.2-0.8-0.2-1.3c0-0.2,0.1-1.4,0.1-1.7s0.3-1.2,0.6-1.5c0.3-0.3,0.6-0.6,0.8-0.8c0.2-0.2,0-0.7,0-0.8c0-0.1,0.7,0,1.2,0
			c0.5,0,1.1,0.2,1.7,0.2c0.7,0,0.9,0.2,1.3,0.3c0.5,0.2,1.2,0.3,2.3,0.7c1.1,0.4,1,0.6,1.5,1c0.5,0.4,0.5,1,0.6,1.5
			C30.5,50.3,30.3,50.7,30.3,51.1z M27.5,49.8c-0.1-0.1-0.4-0.3-0.7-0.3s-1-0.2-1.5-0.3c-0.5-0.2-1-0.2-1.3-0.2
			c-0.4,0-0.6,0.2-0.8,0.4c-0.2,0.2-0.3,0.5-0.5,0.6s0,0.8,0.1,0.8c0.1,0,0.6,0.4,0.9,0.5s1,0.1,1.6,0.2c0.6,0.1,1.5,0,1.8-0.2
			c0.3-0.2,0.4-0.4,0.5-0.6C27.8,50.4,27.6,49.9,27.5,49.8z"/>
		<path d="M43.2,86.4h-2.8v-7.7h2.8c0.6,0,1.1,0.1,1.5,0.3c0.5,0.2,0.9,0.4,1.2,0.8c0.3,0.3,0.6,0.7,0.8,1.2c0.2,0.5,0.3,1,0.3,1.6
			c0,0.6-0.1,1.1-0.3,1.6c-0.2,0.5-0.4,0.9-0.8,1.2c-0.3,0.3-0.7,0.6-1.2,0.8C44.3,86.3,43.8,86.4,43.2,86.4z M43.2,79.7h-1.8v5.8
			h1.8c0.4,0,0.8-0.1,1.1-0.2c0.3-0.1,0.6-0.3,0.8-0.6c0.2-0.3,0.4-0.6,0.5-0.9c0.1-0.4,0.2-0.8,0.2-1.2c0-0.4-0.1-0.8-0.2-1.2
			c-0.1-0.4-0.3-0.7-0.5-0.9c-0.2-0.3-0.5-0.4-0.8-0.6C44,79.7,43.7,79.7,43.2,79.7z M7.9,86.4H3.3v-7.7h1.1v6.7h3.5V86.4z
			 M26.5,86.4H22v-7.7H23v6.7h3.5V86.4z"/>
	</g>
</g>
</svg>
