<!-- Generator: Adobe Illustrator 19.1.0, SVG Export Plug-In  -->
<svg version="1.1"
	 xmlns="http://www.w3.org/2000/svg" xmlns:xlink="http://www.w3.org/1999/xlink" xmlns:a="http://ns.adobe.com/AdobeSVGViewerExtensions/3.0/"
	 x="0px" y="0px" width="30.8px" height="31.9px" viewBox="0 0 30.8 31.9" enable-background="new 0 0 30.8 31.9"
	 xml:space="preserve">
<defs>
</defs>
<path fill="#FDB515" d="M2.9,1.4c0.1,0,0.2,0.5,0.3,0.5C3.4,2,4.1,1.8,4.7,1.7c0.6-0.1,2.3-0.3,3.1-0.5C8.7,1,10,0.9,10.6,1
	c0.6,0.1,0.9,0.5,1,0.8c0.2,0.3,0.1,1,0.1,1.3s-0.5,0.8-0.9,1c-0.3,0.2-0.7,0.4-0.8,0.3C9.9,4.3,9.6,3.9,9.3,3.8
	C8.9,3.8,7.9,3.9,7.2,3.9S5,4.3,4.6,4.4C4.2,4.4,3.2,4.5,3.2,4.6C3.1,4.6,3.1,4.9,3,5.2s0.1,1-0.2,1.2c-0.2,0.1-0.1,0.8-0.2,1
	C2.7,7.5,2.8,12.8,2.9,13s0.3,0.9,0.2,1.1c0,0.2-0.1,3.2-0.1,3.6c0,0.5,0,6.7,0.1,7.1s0.2,2.7,0.2,3.1c0,0.3,0.1,0.3,0.3,0.3
	c0.2,0,1.7,0.3,2.4,0.4C6.5,28.8,9.4,29,9.4,29l0.1,2.7c0,0-0.1,0.1-0.5,0c-0.4-0.1-4-0.4-4.7-0.5s-1.7-0.2-2.1,0.1
	s-1.1,0.4-1.7-0.2C-0.1,30.6,0,29.5,0.2,29s0.4-1.1,0.5-1.9c0.1-0.8-0.3-2-0.4-2.7c-0.1-0.7-0.1-3.9,0-5.2s-0.1-3.5-0.2-4
	s0.1-4.6,0.1-6.7s0.4-7,0.4-7C0.6,1.4,2.8,1.4,2.9,1.4z M3.5,14.5c0,0-0.2,1.9-0.2,2.1c0,0.2,0.3,0.5,0.4,0.5
	c0.1,0.1,0.7,0.1,1.1-0.1c0.5-0.2,0.6-0.3,1-0.3c0.4,0,1.5-0.1,1.8-0.2c0.2-0.1,0.6-0.1,0.7-0.3c0.1-0.2,0.2-0.3,0.5-0.4
	c0.3-0.1,0.7-0.2,0.8-0.5s0.3-0.5,0.1-0.8S9.1,14,8.6,13.8c-0.5-0.2-0.7-0.3-1.2-0.2c-0.5,0.1-1.6,0.5-2,0.6
	c-0.4,0.1-1.2,0.2-1.5,0.2S3.5,14.5,3.5,14.5z M21.3,28.1c0,0-0.2,0.8-0.2,1.3c0,0.5,0,1.3,0.1,1.4c0.1,0.2,0.1,0.2,0.5,0.2
	s4-0.1,4.2,0.1c0.3,0.1,1,0.5,1.4,0.5s1.6,0.3,1.8,0.3c0.2,0,0.3,0,0.3-0.2c0-0.3,0.1-2.4,0.1-3.1c0-0.7-0.2-4.9-0.1-5.3
	s0.1-2,0.2-2.7c0.1-0.7,0.5-2.7,0.6-3.4c0.1-0.6,0.4-2.9,0.4-3.3s0.2-2.5,0.1-3.9s0-4.4-0.1-5.4s0.1-3-0.1-3.3
	c-0.2-0.3-0.5-0.6-0.7-0.7c-0.3-0.1-0.6-0.3-0.8-0.3C28.9,0.1,27.6,0,27.1,0s-1.4,0-1.8,0.1c-0.3,0.1-0.8,0.5-1.2,0.5
	s-3.3,0.1-3.8,0s-1-0.2-1.1,0.1c-0.1,0.2-0.4,1.9-0.3,2.2s0.2,0.4,0.5,0.5c0.3,0.1,1,0.2,1.4,0.2c0.4,0.1,1.3,0.1,2.4-0.1
	s2-0.4,2.4-0.5c0.4-0.1,1.1-0.2,1.5-0.1c0.3,0.2,0.8,0.1,0.8,0.5S28,9.2,28,9.7s0.1,3.1,0,3.5c-0.1,0.3-0.3,1.7-0.5,2.4
	c-0.2,0.7-0.6,2.3-0.7,3.1s-0.2,2.4-0.2,3.3c0,0.9,0,6,0,6.2s0,0.2-0.3,0.1c-0.3-0.1-3.1-0.1-3.7-0.1S21.6,28.1,21.3,28.1z
	 M25.8,13.1c-0.3,0-1.4,0.2-1.8,0.3c-0.4,0.1-1.4,0.3-1.8,0.4c-0.4,0-0.6,0.3-0.6,0.4c0,0.1,0,1.6,0,2c0,0.5,0.2,0.5,0.4,0.5
	s1.2-0.1,1.5-0.1c0.3-0.1,0.6-0.3,1-0.4s1.2,0,1.9,0c0.7,0,0.6-0.1,0.6-0.2c0.1-0.1-0.1-2.8-0.1-2.8C26.9,13,26.2,13.1,25.8,13.1z
	 M13.4,2.8c0,0.2-0.1,1.4-0.2,1.8S13,7.1,13,7.6s0.2,1.5,0.3,2c0.1,0.5,0.4,0.5,0.8,0.6c0.4,0.1,0.7-0.1,1-0.3
	c0.3-0.2,0.7-0.6,0.9-0.9c0.2-0.2,0.1-0.4,0-0.6c-0.1-0.3-0.2-0.6-0.2-1s0.2-1.1,0.2-1.3c0.1-0.2,0.1-2,0.2-2.3S16.1,2.5,16,2.4
	c-0.1-0.1-2.3-0.1-2.3-0.1C13.6,2.3,13.4,2.6,13.4,2.8z M13.7,20.4c0.1,0.2-0.1,1.3,0,1.7c0.1,0.3-0.1,1.3-0.2,1.6
	c-0.2,0.3-0.2,0.9-0.3,1.3c-0.1,0.3-0.3,1.7-0.3,1.9s-0.1,0.5,0,0.6c0.1,0.1,2.6,0.1,2.8,0.1s0.3-0.1,0.2-0.4s0.1-1.5,0.2-1.8
	c0.1-0.2,0.2-1.9,0.2-2.2s0.2-2.7,0.2-2.8c0-0.1,0.1-0.2-0.5-0.2c-0.6,0-2.1-0.1-2.1-0.1C13.7,20,13.6,20.2,13.7,20.4z M20.6,16.4
	c0,0.3-0.3,0.8-0.4,1.1c-0.1,0.2-0.3,0.5-0.5,1c-0.2,0.4-0.5,0.6-0.8,0.7c-0.3,0.1-1.1,0.2-1.6,0.2s-2.5-0.1-2.7-0.1
	c-0.2-0.1-0.8-0.1-1.4-0.1s-1.4-0.5-1.8-0.7c-0.3-0.2-0.6-0.7-0.8-1s-0.2-0.8-0.2-1.3c0-0.2,0.1-1.4,0.1-1.7s0.3-1.2,0.6-1.5
	c0.3-0.3,0.6-0.6,0.8-0.8c0.2-0.2,0-0.7,0-0.8s0.7,0,1.2,0c0.5,0,1.1,0.2,1.8,0.2c0.7,0,0.9,0.2,1.3,0.3c0.5,0.2,1.2,0.3,2.3,0.7
	c1.1,0.4,1,0.6,1.5,1c0.5,0.4,0.5,1,0.6,1.5C20.8,15.6,20.6,16.1,20.6,16.4z M17.9,15.1c-0.1-0.1-0.4-0.3-0.7-0.3
	c-0.4,0-1-0.2-1.5-0.3c-0.5-0.2-1-0.2-1.3-0.2c-0.4,0-0.6,0.2-0.9,0.4c-0.2,0.2-0.3,0.5-0.5,0.6s0,0.8,0.1,0.8
	c0.1,0,0.6,0.4,0.9,0.5s1,0.1,1.6,0.2c0.6,0.1,1.5,0,1.8-0.2s0.4-0.4,0.5-0.6S17.9,15.2,17.9,15.1z"/>
</svg>
