<!-- Generator: Adobe Illustrator 19.1.0, SVG Export Plug-In  -->
<svg version="1.1"
	 xmlns="http://www.w3.org/2000/svg" xmlns:xlink="http://www.w3.org/1999/xlink" xmlns:a="http://ns.adobe.com/AdobeSVGViewerExtensions/3.0/"
	 x="0px" y="0px" width="39.5px" height="51.3px" viewBox="0 0 39.5 51.3" enable-background="new 0 0 39.5 51.3"
	 xml:space="preserve">
<defs>
</defs>
<g>
	<path d="M39.5,21c0,9.8-14.1,25.2-18.5,29.7c-0.7,0.7-1.9,0.7-2.6,0C14.1,46.2,0,30.8,0,21C0,9.4,8.9,0,19.8,0S39.5,9.4,39.5,21z"
		/>
	<path fill="#FDB515" d="M10.4,9.5c0.1,0,0.1,0.3,0.2,0.4c0.1,0.1,0.6-0.1,1.1-0.2c0.5-0.1,1.7-0.2,2.2-0.3c0.6-0.1,1.5-0.2,1.9-0.2
		c0.4,0,0.6,0.4,0.7,0.6c0.1,0.2,0.1,0.7,0.1,0.9s-0.4,0.6-0.6,0.7c-0.2,0.2-0.5,0.3-0.6,0.2c-0.1-0.1-0.3-0.4-0.5-0.4
		c-0.2-0.1-1,0.1-1.5,0.1c-0.5,0-1.5,0.3-1.8,0.3c-0.3,0-1,0.1-1,0.1c-0.1,0,0,0.3-0.1,0.4c-0.1,0.2,0,0.7-0.1,0.8s-0.1,0.6-0.1,0.7
		s0.1,3.9,0.1,4.1c0,0.2,0.2,0.6,0.2,0.8c0,0.2-0.1,2.3-0.1,2.6c0,0.3,0,4.8,0.1,5.1c0.1,0.3,0.1,2,0.1,2.2c0,0.2,0.1,0.2,0.2,0.2
		s1.2,0.2,1.7,0.3c0.5,0.1,2.5,0.2,2.5,0.2l0.1,1.9c0,0-0.1,0.1-0.4,0s-2.8-0.3-3.3-0.4s-1.2-0.2-1.5,0.1c-0.3,0.2-0.8,0.3-1.2-0.2
		c-0.5-0.4-0.4-1.2-0.3-1.5c0.2-0.3,0.3-0.8,0.4-1.4s-0.2-1.4-0.3-1.9c-0.1-0.5-0.1-2.8,0-3.7c0.1-0.9-0.1-2.5-0.2-2.9
		C8.2,19,8.4,16,8.4,14.6s0.3-5,0.3-5C8.7,9.4,10.3,9.5,10.4,9.5z M10.8,18.8c0,0-0.1,1.4-0.1,1.5c0,0.2,0.2,0.3,0.3,0.4
		c0.1,0,0.5,0.1,0.8,0c0.3-0.1,0.4-0.2,0.7-0.2s1.1-0.1,1.3-0.1c0.2,0,0.4-0.1,0.5-0.2c0.1-0.2,0.2-0.2,0.4-0.3
		c0.2-0.1,0.5-0.1,0.6-0.3c0.1-0.2,0.2-0.4,0-0.6c-0.2-0.2-0.4-0.4-0.8-0.6s-0.5-0.2-0.9-0.2c-0.3,0-1.2,0.4-1.4,0.4
		c-0.3,0-0.9,0.2-1.1,0.2S10.8,18.8,10.8,18.8z M23.5,28.6c0,0-0.2,0.6-0.2,0.9s0,0.9,0.1,1s0.1,0.1,0.3,0.1c0.2,0,2.8,0,3,0
		c0.2,0.1,0.7,0.3,1,0.4s1.2,0.2,1.3,0.2c0.1,0,0.2,0,0.2-0.2s0.1-1.8,0.1-2.2c0-0.5-0.1-3.5-0.1-3.8c0-0.3,0.1-1.4,0.2-2
		c0.1-0.5,0.4-2,0.5-2.4s0.3-2.1,0.3-2.4s0.1-1.8,0.1-2.8c0-1,0-3.2,0-3.8s0.1-2.1-0.1-2.3c-0.2-0.2-0.3-0.5-0.5-0.5
		c-0.2-0.1-0.4-0.2-0.6-0.2S28,8.5,27.7,8.5s-1,0-1.3,0.1s-0.6,0.3-0.9,0.3s-2.4,0.1-2.7,0c-0.4-0.1-0.7-0.1-0.8,0
		c0,0.2-0.3,1.4-0.2,1.6c0.1,0.2,0.1,0.3,0.3,0.3c0.2,0.1,0.7,0.1,1,0.2c0.3,0,0.9,0,1.7,0c0.8-0.1,1.4-0.3,1.7-0.3
		c0.3,0,0.8-0.2,1-0.1c0.2,0.1,0.6,0,0.6,0.4c0,0.3,0.1,4.1,0.2,4.5c0,0.3,0.1,2.2,0,2.5s-0.2,1.2-0.3,1.7c-0.1,0.5-0.4,1.7-0.5,2.2
		c-0.1,0.6-0.2,1.7-0.2,2.3c0,0.6,0,4.3,0,4.4c0,0.1,0,0.1-0.2,0.1c-0.2-0.1-2.2-0.1-2.6-0.1C24,28.6,23.7,28.5,23.5,28.6z
		 M26.8,17.9c-0.2,0-1,0.1-1.3,0.2c-0.3,0.1-1,0.2-1.3,0.3s-0.4,0.2-0.4,0.3c0,0.1,0,1.1,0,1.5s0.1,0.3,0.3,0.3c0.2,0,0.8,0,1.1-0.1
		c0.2,0,0.4-0.2,0.7-0.3c0.3-0.1,0.9,0,1.3,0c0.5,0,0.4-0.1,0.5-0.1c0-0.1-0.1-2-0.1-2C27.5,17.8,27,17.9,26.8,17.9z M17.9,10.5
		c0,0.2-0.1,1-0.1,1.3c-0.1,0.3-0.2,1.8-0.2,2.1c0,0.3,0.1,1.1,0.2,1.5c0.1,0.4,0.3,0.4,0.6,0.4c0.3,0,0.5-0.1,0.7-0.2
		c0.2-0.1,0.5-0.5,0.7-0.6s0.1-0.3,0-0.5c-0.1-0.2-0.2-0.5-0.2-0.7c0-0.3,0.1-0.8,0.2-0.9c0-0.2,0.1-1.4,0.1-1.7c0-0.2-0.1-1-0.1-1
		c0-0.1-1.6,0-1.6,0C18,10.1,17.9,10.3,17.9,10.5z M18.1,23c0.1,0.2-0.1,1,0,1.2c0,0.2,0,0.9-0.2,1.1c-0.1,0.2-0.2,0.7-0.2,0.9
		c-0.1,0.2-0.2,1.2-0.2,1.3s-0.1,0.4,0,0.4c0.1,0.1,1.8,0,2,0c0.2,0,0.2-0.1,0.2-0.3c0-0.2,0-1.1,0.1-1.3s0.2-1.4,0.2-1.5
		c0-0.2,0.1-1.9,0.1-2c0-0.1,0.1-0.1-0.4-0.2c-0.5,0-1.5-0.1-1.5-0.1C18.1,22.7,18,22.9,18.1,23z M23,20.2c0,0.2-0.2,0.6-0.3,0.8
		c-0.1,0.2-0.2,0.4-0.4,0.7s-0.3,0.5-0.6,0.5c-0.2,0.1-0.8,0.1-1.2,0.1c-0.4,0-1.8,0-1.9-0.1c-0.2,0-0.6,0-1-0.1
		c-0.4,0-1-0.4-1.3-0.5c-0.2-0.1-0.5-0.5-0.6-0.7c-0.1-0.2-0.1-0.6-0.1-0.9c0-0.1,0.1-1,0.1-1.2c0-0.2,0.2-0.8,0.5-1.1
		c0.2-0.2,0.4-0.4,0.6-0.6s0-0.5,0-0.6c0-0.1,0.5,0,0.9,0c0.3,0,0.8,0.1,1.3,0.1c0.5,0,0.6,0.1,1,0.2c0.3,0.1,0.9,0.2,1.7,0.5
		s0.7,0.5,1.1,0.7c0.3,0.3,0.4,0.7,0.4,1.1C23.2,19.6,23,19.9,23,20.2z M21.1,19.2c-0.1-0.1-0.3-0.2-0.5-0.2c-0.3,0-0.7-0.1-1-0.2
		c-0.3-0.1-0.7-0.2-0.9-0.2c-0.3,0-0.5,0.2-0.6,0.3c-0.2,0.2-0.2,0.3-0.3,0.4c-0.1,0.1,0,0.6,0.1,0.6c0.1,0,0.4,0.3,0.6,0.4
		s0.7,0.1,1.1,0.1c0.4,0,1.1,0,1.3-0.1c0.2-0.1,0.3-0.3,0.4-0.4C21.2,19.7,21.1,19.3,21.1,19.2z"/>
</g>
</svg>
