<!-- Generator: Adobe Illustrator 19.1.0, SVG Export Plug-In  -->
<svg version="1.1"
	 xmlns="http://www.w3.org/2000/svg" xmlns:xlink="http://www.w3.org/1999/xlink" xmlns:a="http://ns.adobe.com/AdobeSVGViewerExtensions/3.0/"
	 x="0px" y="0px" width="28.3px" height="32px" viewBox="0 0 28.3 32" enable-background="new 0 0 28.3 32" xml:space="preserve">
<defs>
</defs>
<polygon fill-rule="evenodd" clip-rule="evenodd" fill="#fdb515" points="0,0 0,2.7 0,29.3 0,32 2.7,32 8,32 8,29.3 2.7,29.3 
	2.7,2.7 8,2.7 8,0 2.7,0 "/>
<g>
	<path d="M26.6,8.1l1.5,1.5c0.2,0.2,0.2,0.5,0,0.7L23,15.7c-0.2,0.2-0.2,0.5,0,0.7l5.2,5.3c0.2,0.2,0.2,0.5,0,0.7
		l-1.5,1.5c-0.2,0.2-0.5,0.2-0.7,0l-7.3-7.5c-0.2-0.2-0.2-0.5,0-0.7l7.3-7.5C26.1,8,26.4,7.9,26.6,8.1z"/>
</g>
</svg>
