<!-- Generator: Adobe Illustrator 19.1.0, SVG Export Plug-In  -->
<svg version="1.1"
	 xmlns="http://www.w3.org/2000/svg" xmlns:xlink="http://www.w3.org/1999/xlink" xmlns:a="http://ns.adobe.com/AdobeSVGViewerExtensions/3.0/"
	 x="0px" y="0px" width="28.3px" height="32px" viewBox="0 0 28.3 32" enable-background="new 0 0 28.3 32" xml:space="preserve">
<defs>
</defs>
<polygon fill-rule="evenodd" clip-rule="evenodd" fill="#fdb515" points="25.6,0 20.3,0 20.3,2.7 25.6,2.7 25.6,29.3 20.3,29.3 
	20.3,32 25.6,32 28.3,32 28.3,29.3 28.3,2.7 28.3,0 "/>
<g>
	<path d="M1.7,23.9l-1.5-1.5c-0.2-0.2-0.2-0.5,0-0.7l5.2-5.3c0.2-0.2,0.2-0.5,0-0.7l-5.2-5.3c-0.2-0.2-0.2-0.5,0-0.7
		l1.5-1.5c0.2-0.2,0.5-0.2,0.7,0l7.3,7.5c0.2,0.2,0.2,0.5,0,0.7l-7.3,7.5C2.2,24,1.9,24.1,1.7,23.9z"/>
</g>
</svg>
