<!-- Generator: Adobe Illustrator 19.1.0, SVG Export Plug-In  -->
<svg version="1.1"
	 xmlns="http://www.w3.org/2000/svg" xmlns:xlink="http://www.w3.org/1999/xlink" xmlns:a="http://ns.adobe.com/AdobeSVGViewerExtensions/3.0/"
	 x="0px" y="0px" width="24px" height="24px" viewBox="0 0 24 24" enable-background="new 0 0 24 24" xml:space="preserve">
<defs>
</defs>
<g id="XMLID_1_">
	
		<rect id="XMLID_6_" x="11" y="4" transform="matrix(0.7071 -0.7071 0.7071 0.7071 -4.9705 12)" width="2" height="16"/>
	
		<rect id="XMLID_5_" x="11" y="4" transform="matrix(0.7071 0.7071 -0.7071 0.7071 12 -4.9706)" width="2" height="16"/>
	<g id="XMLID_2_">
		<polygon id="XMLID_4_" fill-rule="evenodd" clip-rule="evenodd" fill="#FDB515" points="0,0 0,2 0,22 0,24 2,24 6,24 6,22 2,22 
			2,2 6,2 6,0 2,0 		"/>
		<polygon id="XMLID_3_" fill-rule="evenodd" clip-rule="evenodd" fill="#FDB515" points="22,0 18,0 18,2 22,2 22,22 18,22 18,24 
			22,24 24,24 24,22 24,2 24,0 		"/>
	</g>
</g>
</svg>
