<!-- Generator: Adobe Illustrator 19.1.0, SVG Export Plug-In  -->
<svg version="1.1"
	 xmlns="http://www.w3.org/2000/svg" xmlns:xlink="http://www.w3.org/1999/xlink" xmlns:a="http://ns.adobe.com/AdobeSVGViewerExtensions/3.0/"
	 x="0px" y="0px" width="48px" height="48px" viewBox="0 0 48 48" enable-background="new 0 0 48 48" xml:space="preserve">
<defs>
</defs>
<g>
	<g>
		<polygon fill-rule="evenodd" clip-rule="evenodd" fill="#FDB515" points="0,0 0,4 0,44 0,48 4,48 12,48 12,44 4,44 4,4 12,4 12,0 
			4,0 		"/>
		<polygon fill-rule="evenodd" clip-rule="evenodd" fill="#FDB515" points="44,0 36,0 36,4 44,4 44,44 36,44 36,48 44,48 48,48 
			48,44 48,4 48,0 		"/>
	</g>
	<path fill="#FDB515" d="M14.3,34.8l20.8-10.4c0.4-0.2,0.4-0.7,0-0.9L14.3,13.2c-0.3-0.2-0.7,0.1-0.7,0.4v20.8
		C13.6,34.8,14,35,14.3,34.8z"/>
</g>
</svg>
