<!-- Generator: Adobe Illustrator 19.1.0, SVG Export Plug-In  -->
<svg version="1.1"
	 xmlns="http://www.w3.org/2000/svg" xmlns:xlink="http://www.w3.org/1999/xlink" xmlns:a="http://ns.adobe.com/AdobeSVGViewerExtensions/3.0/"
	 x="0px" y="0px" width="12px" height="12px" viewBox="0 0 12 12" enable-background="new 0 0 12 12" xml:space="preserve">
<defs>
</defs>
<path fill-rule="evenodd" clip-rule="evenodd" d="M1.5,0h8.9C11.3,0,12,0.7,12,1.5v8.9c0,0.8-0.7,1.5-1.5,1.5H1.5
	C0.7,12,0,11.3,0,10.5V1.5C0,0.7,0.7,0,1.5,0L1.5,0z M8.7,1.3c-0.3,0-0.5,0.2-0.5,0.5v1.3c0,0.3,0.2,0.5,0.5,0.5h1.4
	c0.3,0,0.5-0.2,0.5-0.5V1.9c0-0.3-0.2-0.5-0.5-0.5H8.7L8.7,1.3z M10.6,5.1H9.6c0.1,0.3,0.2,0.7,0.2,1c0,2-1.7,3.6-3.7,3.6
	C4,9.7,2.3,8.1,2.3,6.1c0-0.4,0.1-0.7,0.2-1H1.3v5.1c0,0.3,0.2,0.5,0.5,0.5h8.4c0.3,0,0.5-0.2,0.5-0.5V5.1L10.6,5.1z M6,3.6
	c-1.3,0-2.4,1-2.4,2.3c0,1.3,1.1,2.3,2.4,2.3c1.3,0,2.4-1,2.4-2.3C8.4,4.7,7.3,3.6,6,3.6z"/>
</svg>
