<!-- Generator: Adobe Illustrator 19.1.0, SVG Export Plug-In  -->
<svg version="1.1"
	 xmlns="http://www.w3.org/2000/svg" xmlns:xlink="http://www.w3.org/1999/xlink" xmlns:a="http://ns.adobe.com/AdobeSVGViewerExtensions/3.0/"
	 x="0px" y="0px" width="14.5px" height="14.7px" viewBox="0 0 14.5 14.7" enable-background="new 0 0 14.5 14.7"
	 xml:space="preserve">
<defs>
</defs>
<path d="M7.2,0.7C7.3,0.8,7.4,0.9,7.6,1C7.7,1.2,7.9,1.4,8,1.6C8.2,1.8,8.3,2,8.4,2.3c0.1,0.3,0.2,0.6,0.2,1
	c0,0.4,0,0.7-0.1,0.9C8.3,4.5,8.2,4.7,8,4.9C7.9,5.2,7.7,5.3,7.5,5.5C7.3,5.7,7.1,5.9,6.9,6C6.8,6.1,6.7,6.3,6.6,6.4
	C6.4,6.6,6.4,6.7,6.4,7c0,0.2,0.1,0.4,0.2,0.5c0.1,0.1,0.2,0.2,0.3,0.3l0.7,0.5C7.8,8.5,8,8.7,8.2,8.9C8.4,9,8.6,9.2,8.7,9.4
	C8.9,9.6,9,9.9,9.1,10.1c0.1,0.3,0.1,0.6,0.1,0.9c0,0.4-0.1,0.9-0.3,1.3c-0.2,0.4-0.5,0.8-1,1.2c-0.4,0.3-1,0.6-1.6,0.8
	c-0.6,0.2-1.4,0.3-2.2,0.3c-0.7,0-1.3-0.1-1.8-0.2c-0.5-0.2-1-0.4-1.3-0.6c-0.3-0.3-0.6-0.5-0.8-0.9c-0.2-0.3-0.3-0.7-0.3-1
	c0-0.3,0.1-0.7,0.3-1.2c0.2-0.4,0.6-0.8,1.2-1.2c0.3-0.2,0.6-0.3,1-0.4c0.3-0.1,0.7-0.2,1-0.3c0.3-0.1,0.6-0.1,0.9-0.1
	c0.3,0,0.6,0,0.8-0.1C5,8.5,4.9,8.3,4.8,8.1C4.6,7.9,4.6,7.7,4.6,7.4c0-0.2,0-0.3,0.1-0.4c0-0.1,0.1-0.2,0.1-0.3c-0.1,0-0.2,0-0.3,0
	c-0.1,0-0.2,0-0.3,0c-0.5,0-1-0.1-1.4-0.3C2.4,6.2,2.1,6,1.8,5.7c-0.3-0.3-0.5-0.6-0.6-1C1,4.4,1,4,1,3.6c0-0.4,0.1-0.9,0.3-1.4
	c0.2-0.5,0.5-0.9,0.9-1.2c0.6-0.4,1.1-0.7,1.7-0.9C4.5,0.1,5.1,0,5.6,0h4L8.4,0.7H7.2z M7.9,11.8c0-0.2,0-0.5-0.1-0.7
	c-0.1-0.2-0.2-0.4-0.4-0.6C7.2,10.3,7,10.1,6.8,9.9C6.5,9.7,6.2,9.5,5.8,9.2c-0.1,0-0.1,0-0.2,0c-0.1,0-0.1,0-0.2,0c0,0-0.1,0-0.3,0
	c-0.1,0-0.3,0-0.5,0C4.4,9.3,4.2,9.3,4,9.4c-0.2,0-0.4,0.1-0.6,0.2c-0.1,0-0.2,0.1-0.4,0.2c-0.2,0.1-0.4,0.2-0.5,0.4
	c-0.2,0.2-0.3,0.3-0.5,0.6c-0.1,0.2-0.2,0.5-0.2,0.9c0,0.7,0.3,1.3,0.9,1.7c0.6,0.4,1.4,0.7,2.5,0.7c0.9,0,1.6-0.2,2.1-0.6
	C7.7,12.9,7.9,12.4,7.9,11.8z M5.1,6.1c0.2,0,0.5-0.1,0.7-0.2C6,5.9,6.2,5.7,6.4,5.6c0.2-0.2,0.4-0.5,0.4-0.7
	c0.1-0.3,0.1-0.5,0.1-0.7c0-0.3-0.1-0.7-0.2-1.1C6.6,2.6,6.4,2.2,6.2,1.9C6,1.5,5.8,1.2,5.5,1c-0.3-0.2-0.7-0.4-1-0.4
	c-0.3,0-0.5,0.1-0.8,0.2C3.4,0.9,3.2,1.1,3.1,1.3C2.9,1.5,2.8,1.7,2.7,1.9C2.7,2.2,2.7,2.4,2.7,2.7c0,0.3,0,0.7,0.1,1.1
	C2.9,4.2,3,4.5,3.2,4.9C3.4,5.2,3.7,5.5,4,5.8C4.3,6,4.7,6.1,5.1,6.1z M14.5,6.4h-1.9V4.5h-0.8v1.9H9.9v0.8h1.9v1.9h0.8V7.2h1.9V6.4
	z"/>
</svg>