<!-- Generator: Adobe Illustrator 19.1.0, SVG Export Plug-In  -->
<svg version="1.1"
	 xmlns="http://www.w3.org/2000/svg" xmlns:xlink="http://www.w3.org/1999/xlink" xmlns:a="http://ns.adobe.com/AdobeSVGViewerExtensions/3.0/"
	 x="0px" y="0px" width="12.4px" height="16px" viewBox="0 0 12.4 16" enable-background="new 0 0 12.4 16" xml:space="preserve">
<defs>
</defs>
<path d="M6.6,0C2.2,0,0,3.1,0,5.7c0,1.6,0.6,3,1.9,3.5c0.2,0.1,0.4,0,0.5-0.2c0-0.2,0.1-0.6,0.2-0.7
	c0.1-0.2,0-0.3-0.1-0.5C2,7.3,1.8,6.8,1.8,6c0-2.3,1.7-4.4,4.5-4.4c2.5,0,3.8,1.5,3.8,3.5C10.1,7.7,9,10,7.2,10
	c-1,0-1.7-0.8-1.5-1.8C6.1,7,6.6,5.8,6.6,4.9c0-0.8-0.4-1.4-1.2-1.4c-1,0-1.8,1-1.8,2.4c0,0.9,0.3,1.5,0.3,1.5s-1,4.3-1.2,5
	c-0.4,1.5-0.1,3.3,0,3.5C2.7,16,2.8,16,2.9,16c0.1-0.1,1.3-1.6,1.7-3c0.1-0.4,0.6-2.5,0.6-2.5c0.3,0.6,1.3,1.1,2.2,1.1
	c3,0,5-2.7,5-6.3C12.4,2.5,10.1,0,6.6,0z"/>
</svg>
