<!-- Generator: Adobe Illustrator 19.1.0, SVG Export Plug-In  -->
<svg version="1.1"
	 xmlns="http://www.w3.org/2000/svg" xmlns:xlink="http://www.w3.org/1999/xlink" xmlns:a="http://ns.adobe.com/AdobeSVGViewerExtensions/3.0/"
	 x="0px" y="0px" width="12px" height="9.2px" viewBox="0 0 12 9.2" enable-background="new 0 0 12 9.2" xml:space="preserve">
<defs>
</defs>
<path d="M11.8,2.1L11.8,2.1c0-0.2-0.1-0.3-0.1-0.4h0c-0.2-0.8-1.1-1.4-2.2-1.5l-0.1,0c-2.3-0.2-4.6-0.2-6.9,0l-0.1,0
	c-1.1,0.1-2,0.7-2.2,1.5h0c0,0.1-0.1,0.3-0.1,0.4l0,0c-0.2,1.6-0.2,3.3,0,5l0,0c0,0.2,0.1,0.4,0.2,0.6C0.6,8.4,1.5,8.9,2.5,9l0.1,0
	c2.3,0.2,4.6,0.2,6.9,0l0.1,0c1.1-0.1,1.9-0.7,2.2-1.4c0.1-0.2,0.1-0.3,0.1-0.5l0,0C12.1,5.4,12.1,3.8,11.8,2.1z M3.8,7.1V2l5.1,2.5
	L3.8,7.1z"/>
</svg>
