<!-- Generator: Adobe Illustrator 19.1.0, SVG Export Plug-In  -->
<svg version="1.1"
	 xmlns="http://www.w3.org/2000/svg" xmlns:xlink="http://www.w3.org/1999/xlink" xmlns:a="http://ns.adobe.com/AdobeSVGViewerExtensions/3.0/"
	 x="0px" y="0px" width="12px" height="10px" viewBox="0 0 12 10" enable-background="new 0 0 12 10" xml:space="preserve">
<defs>
</defs>
<path d="M10.8,0H1.2C0.5,0,0,0.5,0,1.2v7.7C0,9.5,0.5,10,1.2,10h9.7c0.6,0,1.2-0.5,1.2-1.2V1.2C12,0.5,11.5,0,10.8,0
	z M9.8,1.5L6,5.4L2.2,1.5H9.8z M1.5,8.5V2.2l4.1,4.2C5.7,6.5,5.9,6.6,6,6.6s0.3-0.1,0.4-0.1l4.1-4.2v6.3H1.5z"/>
</svg>
