<!-- Generator: Adobe Illustrator 19.1.0, SVG Export Plug-In  -->
<svg version="1.1"
	 xmlns="http://www.w3.org/2000/svg" xmlns:xlink="http://www.w3.org/1999/xlink" xmlns:a="http://ns.adobe.com/AdobeSVGViewerExtensions/3.0/"
	 x="0px" y="0px" width="7.3px" height="12px" viewBox="0 0 7.3 12" enable-background="new 0 0 7.3 12" xml:space="preserve">
<defs>
</defs>
<path d="M0,1.9c-0.2,1.6,0.5,3.6,1.1,5.2c0.7,1.6,1.7,3.5,2.9,4.5c1.3,1,2.8-0.1,3-0.3c0.2-0.2,0.6-0.3-0.2-1.5
	C6,8.6,5.5,7.7,4.8,8.4C4,9.1,4.3,8.9,3.8,8.8C3.4,8.7,2.7,7.3,2.4,6.6C2.1,5.9,1.6,4.5,1.8,4.1c0.2-0.4-0.1-0.3,0.9-0.4
	c1,0,0.7-1,0.5-2.4C3-0.2,2.6,0,2.4,0C2.1,0,0.2,0.3,0,1.9z"/>
</svg>