<!-- Generator: Adobe Illustrator 19.1.0, SVG Export Plug-In  -->
<svg version="1.1"
	 xmlns="http://www.w3.org/2000/svg" xmlns:xlink="http://www.w3.org/1999/xlink" xmlns:a="http://ns.adobe.com/AdobeSVGViewerExtensions/3.0/"
	 x="0px" y="0px" width="14.7px" height="14.2px" viewBox="0 0 14.7 14.2" enable-background="new 0 0 14.7 14.2"
	 xml:space="preserve">
<defs>
</defs>
<path id="search_2_" d="M14.7,12.9l-3.1-3.1c0.7-1,1-2.2,1-3.4C12.6,2.8,9.7,0,6.3,0C2.8,0,0,2.8,0,6.3
	c0,3.5,2.8,6.3,6.3,6.3c1.5,0,2.9-0.5,4-1.4l3.1,3.1L14.7,12.9z M6.3,10.7c-2.4,0-4.4-2-4.4-4.4c0-2.4,2-4.4,4.4-4.4
	c2.4,0,4.4,2,4.4,4.4C10.7,8.7,8.7,10.7,6.3,10.7z"/>
</svg>
