<svg style="display: none;"><symbol viewBox="0 0 28.3 32" id="shape-flex-next"><title>flex-next</title>  <polygon fill-rule="evenodd" clip-rule="evenodd" fill="#fdb515" points="25.6,0 20.3,0 20.3,2.7 25.6,2.7 25.6,29.3 20.3,29.3 
	20.3,32 25.6,32 28.3,32 28.3,29.3 28.3,2.7 28.3,0 "/> <g> <path d="M1.7,23.9l-1.5-1.5c-0.2-0.2-0.2-0.5,0-0.7l5.2-5.3c0.2-0.2,0.2-0.5,0-0.7l-5.2-5.3c-0.2-0.2-0.2-0.5,0-0.7
		l1.5-1.5c0.2-0.2,0.5-0.2,0.7,0l7.3,7.5c0.2,0.2,0.2,0.5,0,0.7l-7.3,7.5C2.2,24,1.9,24.1,1.7,23.9z"/> </g> </symbol><symbol viewBox="0 0 28.3 32" id="shape-flex-prev"><title>flex-prev</title>  <polygon fill-rule="evenodd" clip-rule="evenodd" fill="#fdb515" points="0,0 0,2.7 0,29.3 0,32 2.7,32 8,32 8,29.3 2.7,29.3 
	2.7,2.7 8,2.7 8,0 2.7,0 "/> <g> <path d="M26.6,8.1l1.5,1.5c0.2,0.2,0.2,0.5,0,0.7L23,15.7c-0.2,0.2-0.2,0.5,0,0.7l5.2,5.3c0.2,0.2,0.2,0.5,0,0.7
		l-1.5,1.5c-0.2,0.2-0.5,0.2-0.7,0l-7.3-7.5c-0.2-0.2-0.2-0.5,0-0.7l7.3-7.5C26.1,8,26.4,7.9,26.6,8.1z"/> </g> </symbol><symbol viewBox="0 0 24 24" id="shape-icon-close"><title>icon-close</title>  <g id="icon-close-XMLID_1_"> <rect id="icon-close-XMLID_6_" x="11" y="4" transform="matrix(0.7071 -0.7071 0.7071 0.7071 -4.9705 12)" width="2" height="16"/> <rect id="icon-close-XMLID_5_" x="11" y="4" transform="matrix(0.7071 0.7071 -0.7071 0.7071 12 -4.9706)" width="2" height="16"/> <g id="icon-close-XMLID_2_"> <polygon id="icon-close-XMLID_4_" fill-rule="evenodd" clip-rule="evenodd" fill="#FDB515" points="0,0 0,2 0,22 0,24 2,24 6,24 6,22 2,22 
			2,2 6,2 6,0 2,0 		"/> <polygon id="icon-close-XMLID_3_" fill-rule="evenodd" clip-rule="evenodd" fill="#FDB515" points="22,0 18,0 18,2 22,2 22,22 18,22 18,24 
			22,24 24,24 24,22 24,2 24,0 		"/> </g> </g> </symbol><symbol viewBox="0 0 5.8 12" id="shape-icon-facebook"><title>icon-facebook</title>  <path d="M1.5,12V6.4H0v-2h1.5c0,0,0-0.8,0-1.7C1.5,1.2,2.4,0,4.4,0c0.8,0,1.4,0.1,1.4,0.1l0,1.9
	c0,0-0.6,0-1.3,0C3.7,2,3.6,2.3,3.6,2.9c0,0.4,0-0.9,0,1.5h2.2l-0.1,2H3.6V12H1.5z"/> </symbol><symbol viewBox="0 0 14.5 14.7" id="shape-icon-googleplus"><title>icon-googleplus</title>  <path d="M7.2,0.7C7.3,0.8,7.4,0.9,7.6,1C7.7,1.2,7.9,1.4,8,1.6C8.2,1.8,8.3,2,8.4,2.3c0.1,0.3,0.2,0.6,0.2,1
	c0,0.4,0,0.7-0.1,0.9C8.3,4.5,8.2,4.7,8,4.9C7.9,5.2,7.7,5.3,7.5,5.5C7.3,5.7,7.1,5.9,6.9,6C6.8,6.1,6.7,6.3,6.6,6.4
	C6.4,6.6,6.4,6.7,6.4,7c0,0.2,0.1,0.4,0.2,0.5c0.1,0.1,0.2,0.2,0.3,0.3l0.7,0.5C7.8,8.5,8,8.7,8.2,8.9C8.4,9,8.6,9.2,8.7,9.4
	C8.9,9.6,9,9.9,9.1,10.1c0.1,0.3,0.1,0.6,0.1,0.9c0,0.4-0.1,0.9-0.3,1.3c-0.2,0.4-0.5,0.8-1,1.2c-0.4,0.3-1,0.6-1.6,0.8
	c-0.6,0.2-1.4,0.3-2.2,0.3c-0.7,0-1.3-0.1-1.8-0.2c-0.5-0.2-1-0.4-1.3-0.6c-0.3-0.3-0.6-0.5-0.8-0.9c-0.2-0.3-0.3-0.7-0.3-1
	c0-0.3,0.1-0.7,0.3-1.2c0.2-0.4,0.6-0.8,1.2-1.2c0.3-0.2,0.6-0.3,1-0.4c0.3-0.1,0.7-0.2,1-0.3c0.3-0.1,0.6-0.1,0.9-0.1
	c0.3,0,0.6,0,0.8-0.1C5,8.5,4.9,8.3,4.8,8.1C4.6,7.9,4.6,7.7,4.6,7.4c0-0.2,0-0.3,0.1-0.4c0-0.1,0.1-0.2,0.1-0.3c-0.1,0-0.2,0-0.3,0
	c-0.1,0-0.2,0-0.3,0c-0.5,0-1-0.1-1.4-0.3C2.4,6.2,2.1,6,1.8,5.7c-0.3-0.3-0.5-0.6-0.6-1C1,4.4,1,4,1,3.6c0-0.4,0.1-0.9,0.3-1.4
	c0.2-0.5,0.5-0.9,0.9-1.2c0.6-0.4,1.1-0.7,1.7-0.9C4.5,0.1,5.1,0,5.6,0h4L8.4,0.7H7.2z M7.9,11.8c0-0.2,0-0.5-0.1-0.7
	c-0.1-0.2-0.2-0.4-0.4-0.6C7.2,10.3,7,10.1,6.8,9.9C6.5,9.7,6.2,9.5,5.8,9.2c-0.1,0-0.1,0-0.2,0c-0.1,0-0.1,0-0.2,0c0,0-0.1,0-0.3,0
	c-0.1,0-0.3,0-0.5,0C4.4,9.3,4.2,9.3,4,9.4c-0.2,0-0.4,0.1-0.6,0.2c-0.1,0-0.2,0.1-0.4,0.2c-0.2,0.1-0.4,0.2-0.5,0.4
	c-0.2,0.2-0.3,0.3-0.5,0.6c-0.1,0.2-0.2,0.5-0.2,0.9c0,0.7,0.3,1.3,0.9,1.7c0.6,0.4,1.4,0.7,2.5,0.7c0.9,0,1.6-0.2,2.1-0.6
	C7.7,12.9,7.9,12.4,7.9,11.8z M5.1,6.1c0.2,0,0.5-0.1,0.7-0.2C6,5.9,6.2,5.7,6.4,5.6c0.2-0.2,0.4-0.5,0.4-0.7
	c0.1-0.3,0.1-0.5,0.1-0.7c0-0.3-0.1-0.7-0.2-1.1C6.6,2.6,6.4,2.2,6.2,1.9C6,1.5,5.8,1.2,5.5,1c-0.3-0.2-0.7-0.4-1-0.4
	c-0.3,0-0.5,0.1-0.8,0.2C3.4,0.9,3.2,1.1,3.1,1.3C2.9,1.5,2.8,1.7,2.7,1.9C2.7,2.2,2.7,2.4,2.7,2.7c0,0.3,0,0.7,0.1,1.1
	C2.9,4.2,3,4.5,3.2,4.9C3.4,5.2,3.7,5.5,4,5.8C4.3,6,4.7,6.1,5.1,6.1z M14.5,6.4h-1.9V4.5h-0.8v1.9H9.9v0.8h1.9v1.9h0.8V7.2h1.9V6.4
	z"/> </symbol><symbol viewBox="0 0 12 12" id="shape-icon-instagram"><title>icon-instagram</title>  <path fill-rule="evenodd" clip-rule="evenodd" d="M1.5,0h8.9C11.3,0,12,0.7,12,1.5v8.9c0,0.8-0.7,1.5-1.5,1.5H1.5
	C0.7,12,0,11.3,0,10.5V1.5C0,0.7,0.7,0,1.5,0L1.5,0z M8.7,1.3c-0.3,0-0.5,0.2-0.5,0.5v1.3c0,0.3,0.2,0.5,0.5,0.5h1.4
	c0.3,0,0.5-0.2,0.5-0.5V1.9c0-0.3-0.2-0.5-0.5-0.5H8.7L8.7,1.3z M10.6,5.1H9.6c0.1,0.3,0.2,0.7,0.2,1c0,2-1.7,3.6-3.7,3.6
	C4,9.7,2.3,8.1,2.3,6.1c0-0.4,0.1-0.7,0.2-1H1.3v5.1c0,0.3,0.2,0.5,0.5,0.5h8.4c0.3,0,0.5-0.2,0.5-0.5V5.1L10.6,5.1z M6,3.6
	c-1.3,0-2.4,1-2.4,2.3c0,1.3,1.1,2.3,2.4,2.3c1.3,0,2.4-1,2.4-2.3C8.4,4.7,7.3,3.6,6,3.6z"/> </symbol><symbol viewBox="0 0 16 13.3" id="shape-icon-mail"><title>icon-mail</title>  <path d="M14.5,0H1.5C0.7,0,0,0.7,0,1.5v10.2c0,0.9,0.7,1.5,1.5,1.5h12.9c0.9,0,1.5-0.7,1.5-1.5V1.5
	C16,0.7,15.3,0,14.5,0z M13.1,2L8,7.1L2.9,2H13.1z M2,11.3V3l5.5,5.6C7.7,8.7,7.8,8.8,8,8.8s0.3-0.1,0.5-0.2L14,3v8.4H2z"/> </symbol><symbol viewBox="0 0 12.4 16" id="shape-icon-pinterest"><title>icon-pinterest</title>  <path d="M6.6,0C2.2,0,0,3.1,0,5.7c0,1.6,0.6,3,1.9,3.5c0.2,0.1,0.4,0,0.5-0.2c0-0.2,0.1-0.6,0.2-0.7
	c0.1-0.2,0-0.3-0.1-0.5C2,7.3,1.8,6.8,1.8,6c0-2.3,1.7-4.4,4.5-4.4c2.5,0,3.8,1.5,3.8,3.5C10.1,7.7,9,10,7.2,10
	c-1,0-1.7-0.8-1.5-1.8C6.1,7,6.6,5.8,6.6,4.9c0-0.8-0.4-1.4-1.2-1.4c-1,0-1.8,1-1.8,2.4c0,0.9,0.3,1.5,0.3,1.5s-1,4.3-1.2,5
	c-0.4,1.5-0.1,3.3,0,3.5C2.7,16,2.8,16,2.9,16c0.1-0.1,1.3-1.6,1.7-3c0.1-0.4,0.6-2.5,0.6-2.5c0.3,0.6,1.3,1.1,2.2,1.1
	c3,0,5-2.7,5-6.3C12.4,2.5,10.1,0,6.6,0z"/> </symbol><symbol viewBox="0 0 16 13" id="shape-icon-twitter"><title>icon-twitter</title>  <path d="M14.4,3.2c0,0.1,0,0.3,0,0.4C14.4,8,11.1,13,5,13c-1.9,0-3.6-0.5-5-1.5c0.3,0,0.5,0,0.8,0
	c1.5,0,3-0.5,4.1-1.4c-1.4,0-2.6-1-3.1-2.3c0.2,0,0.4,0.1,0.6,0.1c0.3,0,0.6,0,0.9-0.1C1.8,7.5,0.6,6.2,0.6,4.6c0,0,0,0,0,0
	C1.1,4.8,1.6,5,2.1,5C1.2,4.4,0.7,3.4,0.7,2.3c0-0.6,0.2-1.2,0.4-1.7c1.6,2,4,3.3,6.8,3.4C7.8,3.8,7.8,3.5,7.8,3.3
	C7.8,1.5,9.3,0,11.1,0c0.9,0,1.8,0.4,2.4,1c0.7-0.1,1.5-0.4,2.1-0.8c-0.2,0.8-0.8,1.4-1.4,1.8C14.8,2,15.4,1.8,16,1.5
	C15.6,2.2,15,2.8,14.4,3.2z"/> </symbol><symbol viewBox="0 0 48 48" id="shape-icon-video"><title>icon-video</title>  <g> <g> <polygon fill-rule="evenodd" clip-rule="evenodd" fill="#FDB515" points="0,0 0,4 0,44 0,48 4,48 12,48 12,44 4,44 4,4 12,4 12,0 
			4,0 		"/> <polygon fill-rule="evenodd" clip-rule="evenodd" fill="#FDB515" points="44,0 36,0 36,4 44,4 44,44 36,44 36,48 44,48 48,48 
			48,44 48,4 48,0 		"/> </g> <path fill="#FDB515" d="M14.3,34.8l20.8-10.4c0.4-0.2,0.4-0.7,0-0.9L14.3,13.2c-0.3-0.2-0.7,0.1-0.7,0.4v20.8
		C13.6,34.8,14,35,14.3,34.8z"/> </g> </symbol><symbol viewBox="0 0 16 16" id="shape-icon-whatsapp"><title>icon-whatsapp</title>  <path d="M16,7.8c0,4.3-3.5,7.8-7.9,7.8c-1.4,0-2.7-0.4-3.8-1L0,16l1.4-4.2c-0.7-1.2-1.1-2.5-1.1-4
	C0.3,3.5,3.8,0,8.1,0C12.5,0,16,3.5,16,7.8z M8.1,1.2c-3.6,0-6.6,2.9-6.6,6.6c0,1.4,0.5,2.8,1.3,3.8L2,14.1l2.5-0.8
	c1,0.7,2.3,1.1,3.6,1.1c3.6,0,6.6-2.9,6.6-6.6C14.7,4.2,11.8,1.2,8.1,1.2z M12.1,9.6c0-0.1-0.2-0.1-0.4-0.2
	c-0.2-0.1-1.1-0.6-1.3-0.6c-0.2-0.1-0.3-0.1-0.4,0.1C9.9,9,9.5,9.5,9.4,9.6C9.3,9.7,9.2,9.7,9,9.6C8.8,9.5,8.2,9.3,7.4,8.7
	c-0.6-0.5-1-1.1-1.1-1.3C6.2,7.2,6.3,7.1,6.4,7c0.1-0.1,0.2-0.2,0.3-0.3c0.1-0.1,0.1-0.2,0.2-0.3c0.1-0.1,0-0.2,0-0.3
	c0-0.1-0.4-1-0.6-1.4C6.1,4.2,6,4.3,5.9,4.3c-0.1,0-0.2,0-0.4,0c-0.1,0-0.3,0-0.5,0.2C4.8,4.7,4.3,5.1,4.3,6.1C4.3,7,5,7.9,5.1,8
	c0.1,0.1,1.3,2.1,3.3,2.9c2,0.8,2,0.5,2.3,0.5c0.3,0,1.1-0.5,1.3-0.9C12.2,10,12.2,9.7,12.1,9.6z"/> </symbol><symbol viewBox="0 0 12 9.2" id="shape-icon-youtube"><title>icon-youtube</title>  <path d="M11.8,2.1L11.8,2.1c0-0.2-0.1-0.3-0.1-0.4h0c-0.2-0.8-1.1-1.4-2.2-1.5l-0.1,0c-2.3-0.2-4.6-0.2-6.9,0l-0.1,0
	c-1.1,0.1-2,0.7-2.2,1.5h0c0,0.1-0.1,0.3-0.1,0.4l0,0c-0.2,1.6-0.2,3.3,0,5l0,0c0,0.2,0.1,0.4,0.2,0.6C0.6,8.4,1.5,8.9,2.5,9l0.1,0
	c2.3,0.2,4.6,0.2,6.9,0l0.1,0c1.1-0.1,1.9-0.7,2.2-1.4c0.1-0.2,0.1-0.3,0.1-0.5l0,0C12.1,5.4,12.1,3.8,11.8,2.1z M3.8,7.1V2l5.1,2.5
	L3.8,7.1z"/> </symbol><symbol viewBox="0 0 12 10" id="shape-mail"><title>mail</title>  <path d="M10.8,0H1.2C0.5,0,0,0.5,0,1.2v7.7C0,9.5,0.5,10,1.2,10h9.7c0.6,0,1.2-0.5,1.2-1.2V1.2C12,0.5,11.5,0,10.8,0
	z M9.8,1.5L6,5.4L2.2,1.5H9.8z M1.5,8.5V2.2l4.1,4.2C5.7,6.5,5.9,6.6,6,6.6s0.3-0.1,0.4-0.1l4.1-4.2v6.3H1.5z"/> </symbol><symbol viewBox="0 0 7.3 12" id="shape-phone"><title>phone</title>  <path d="M0,1.9c-0.2,1.6,0.5,3.6,1.1,5.2c0.7,1.6,1.7,3.5,2.9,4.5c1.3,1,2.8-0.1,3-0.3c0.2-0.2,0.6-0.3-0.2-1.5
	C6,8.6,5.5,7.7,4.8,8.4C4,9.1,4.3,8.9,3.8,8.8C3.4,8.7,2.7,7.3,2.4,6.6C2.1,5.9,1.6,4.5,1.8,4.1c0.2-0.4-0.1-0.3,0.9-0.4
	c1,0,0.7-1,0.5-2.4C3-0.2,2.6,0,2.4,0C2.1,0,0.2,0.3,0,1.9z"/> </symbol><symbol viewBox="0 0 14.7 14.2" id="shape-search"><title>search</title>  <path id="search-search_2_" d="M14.7,12.9l-3.1-3.1c0.7-1,1-2.2,1-3.4C12.6,2.8,9.7,0,6.3,0C2.8,0,0,2.8,0,6.3
	c0,3.5,2.8,6.3,6.3,6.3c1.5,0,2.9-0.5,4-1.4l3.1,3.1L14.7,12.9z M6.3,10.7c-2.4,0-4.4-2-4.4-4.4c0-2.4,2-4.4,4.4-4.4
	c2.4,0,4.4,2,4.4,4.4C10.7,8.7,8.7,10.7,6.3,10.7z"/> </symbol></svg>